<svg viewBox="0 0 600 400" xmlns="http://www.w3.org/2000/svg">
<g transform="translate(72, 364)">
<g>
<g>
<path d="M48,-1.73944 L48,-1.73944 L96,-1.89448 L144,-0.89964 L192,-3.12052 L240,-2.52144 L288,-2.80024 L336,-2.88796 L384,-2.50784 L432,-11.87076 L480,-2.1046" fill="none" stroke="green" stroke-linejoin="round" stroke-width="2"/>
</g>
<g>
<circle cx="48" cy="-1.7394399999999999" fill="black" r="5"/>
<circle cx="96" cy="-1.89448" fill="black" r="5"/>
<circle cx="144" cy="-0.89964" fill="black" r="5"/>
<circle cx="192" cy="-3.12052" fill="black" r="5"/>
<circle cx="240" cy="-2.5214399999999997" fill="black" r="5"/>
<circle cx="288" cy="-2.80024" fill="black" r="5"/>
<circle cx="336" cy="-2.88796" fill="black" r="5"/>
<circle cx="384" cy="-2.50784" fill="black" r="5"/>
<circle cx="432" cy="-11.870759999999999" fill="black" r="5"/>
<circle cx="480" cy="-2.1046" fill="black" r="5"/>
</g>
</g>
<g transform="translate(380, -340)">
<text font-size="12" text-anchor="start" x="0" y="0">
Best case
</text>
<line stroke="green" stroke-width="2" x1="-10" x2="-3" y1="-4" y2="-4"/>
</g>
<g>
<g>
<line stroke="black" stroke-width="1" x1="0" x2="0" y1="0" y2="10"/>
<line stroke="black" stroke-width="1" x1="96" x2="96" y1="0" y2="10"/>
<line stroke="black" stroke-width="1" x1="192" x2="192" y1="0" y2="10"/>
<line stroke="black" stroke-width="1" x1="288" x2="288" y1="0" y2="10"/>
<line stroke="black" stroke-width="1" x1="384" x2="384" y1="0" y2="10"/>
<line stroke="black" stroke-width="1" x1="480" x2="480" y1="0" y2="10"/>
</g>
<line stroke="black" stroke-width="1" x1="0" x2="480" y1="0" y2="0"/>
<g>
<text font-size="12" text-anchor="middle" x="0" y="20">
0
</text>
<text font-size="12" text-anchor="middle" x="96" y="20">
20000
</text>
<text font-size="12" text-anchor="middle" x="192" y="20">
40000
</text>
<text font-size="12" text-anchor="middle" x="288" y="20">
60000
</text>
<text font-size="12" text-anchor="middle" x="384" y="20">
80000
</text>
<text font-size="12" text-anchor="middle" x="480" y="20">
100000
</text>
</g>
<text font-size="12" text-anchor="middle" x="240" y="30">
Input-Size
</text>
</g>
<g>
<g>
<line stroke="black" stroke-width="1" x1="0" x2="-10" y1="-0" y2="-0"/>
<line stroke="black" stroke-width="1" x1="0" x2="-10" y1="-68" y2="-68"/>
<line stroke="black" stroke-width="1" x1="0" x2="-10" y1="-136" y2="-136"/>
<line stroke="black" stroke-width="1" x1="0" x2="-10" y1="-203.99999999999997" y2="-203.99999999999997"/>
<line stroke="black" stroke-width="1" x1="0" x2="-10" y1="-272" y2="-272"/>
<line stroke="black" stroke-width="1" x1="0" x2="-10" y1="-340" y2="-340"/>
</g>
<line stroke="black" stroke-width="1" x1="0" x2="0" y1="0" y2="-340"/>
<g>
<text dominant-baseline="middle" font-size="12" text-anchor="end" x="-15" y="-0">
0
</text>
<text dominant-baseline="middle" font-size="12" text-anchor="end" x="-15" y="-68">
0.0001
</text>
<text dominant-baseline="middle" font-size="12" text-anchor="end" x="-15" y="-136">
0.0002
</text>
<text dominant-baseline="middle" font-size="12" text-anchor="end" x="-15" y="-203.99999999999997">
0.0003
</text>
<text dominant-baseline="middle" font-size="12" text-anchor="end" x="-15" y="-272">
0.0004
</text>
<text dominant-baseline="middle" font-size="12" text-anchor="end" x="-15" y="-340">
0.0005
</text>
</g>
<text font-size="12" text-anchor="middle" transform="rotate(-90 -72 -170)" x="-72" y="-182">
Execution-Time (second)
</text>
</g>
</g>
</svg>