<svg viewBox="0 0 600 400" xmlns="http://www.w3.org/2000/svg">
<g transform="translate(72, 364)">
<g>
<g>
<path d="M24,-10.268 L24,-10.268 L48,-20.196 L72,-21.25 L96,-30.09 L120,-35.394 L144,-43.452 L168,-51.544 L192,-57.154 L216,-64.736 L240,-70.788 L264,-79.39 L288,-84.966 L312,-92.038 L336,-99.11 L360,-106.454 L384,-114.342 L408,-121.55 L432,-127.636 L456,-135.524 L480,-150.178" fill="none" stroke="green" stroke-linejoin="round" stroke-width="2"/>
</g>
<g>
<circle cx="24" cy="-10.268" fill="black" r="5"/>
<circle cx="48" cy="-20.196" fill="black" r="5"/>
<circle cx="72" cy="-21.25" fill="black" r="5"/>
<circle cx="96" cy="-30.09" fill="black" r="5"/>
<circle cx="120" cy="-35.394" fill="black" r="5"/>
<circle cx="144" cy="-43.452" fill="black" r="5"/>
<circle cx="168" cy="-51.544" fill="black" r="5"/>
<circle cx="192" cy="-57.154" fill="black" r="5"/>
<circle cx="216" cy="-64.736" fill="black" r="5"/>
<circle cx="240" cy="-70.788" fill="black" r="5"/>
<circle cx="264" cy="-79.39" fill="black" r="5"/>
<circle cx="288" cy="-84.966" fill="black" r="5"/>
<circle cx="312" cy="-92.038" fill="black" r="5"/>
<circle cx="336" cy="-99.11" fill="black" r="5"/>
<circle cx="360" cy="-106.454" fill="black" r="5"/>
<circle cx="384" cy="-114.342" fill="black" r="5"/>
<circle cx="408" cy="-121.55" fill="black" r="5"/>
<circle cx="432" cy="-127.636" fill="black" r="5"/>
<circle cx="456" cy="-135.524" fill="black" r="5"/>
<circle cx="480" cy="-150.178" fill="black" r="5"/>
</g>
</g>
<g transform="translate(380, -340)">
<text font-size="12" text-anchor="start" x="0" y="0">
Best case
</text>
<line stroke="green" stroke-width="2" x1="-10" x2="-3" y1="-4" y2="-4"/>
</g>
<g>
<g>
<line stroke="black" stroke-width="1" x1="0" x2="0" y1="0" y2="10"/>
<line stroke="black" stroke-width="1" x1="96" x2="96" y1="0" y2="10"/>
<line stroke="black" stroke-width="1" x1="192" x2="192" y1="0" y2="10"/>
<line stroke="black" stroke-width="1" x1="288" x2="288" y1="0" y2="10"/>
<line stroke="black" stroke-width="1" x1="384" x2="384" y1="0" y2="10"/>
<line stroke="black" stroke-width="1" x1="480" x2="480" y1="0" y2="10"/>
</g>
<line stroke="black" stroke-width="1" x1="0" x2="480" y1="0" y2="0"/>
<g>
<text font-size="12" text-anchor="middle" x="0" y="20">
0
</text>
<text font-size="12" text-anchor="middle" x="96" y="20">
20000
</text>
<text font-size="12" text-anchor="middle" x="192" y="20">
40000
</text>
<text font-size="12" text-anchor="middle" x="288" y="20">
60000
</text>
<text font-size="12" text-anchor="middle" x="384" y="20">
80000
</text>
<text font-size="12" text-anchor="middle" x="480" y="20">
100000
</text>
</g>
<text font-size="12" text-anchor="middle" x="240" y="30">
Input-Size
</text>
</g>
<g>
<g>
<line stroke="black" stroke-width="1" x1="0" x2="-10" y1="-0" y2="-0"/>
<line stroke="black" stroke-width="1" x1="0" x2="-10" y1="-68" y2="-68"/>
<line stroke="black" stroke-width="1" x1="0" x2="-10" y1="-136" y2="-136"/>
<line stroke="black" stroke-width="1" x1="0" x2="-10" y1="-204" y2="-204"/>
<line stroke="black" stroke-width="1" x1="0" x2="-10" y1="-272" y2="-272"/>
<line stroke="black" stroke-width="1" x1="0" x2="-10" y1="-340" y2="-340"/>
</g>
<line stroke="black" stroke-width="1" x1="0" x2="0" y1="0" y2="-340"/>
<g>
<text dominant-baseline="middle" font-size="12" text-anchor="end" x="-15" y="-0">
0
</text>
<text dominant-baseline="middle" font-size="12" text-anchor="end" x="-15" y="-68">
2000
</text>
<text dominant-baseline="middle" font-size="12" text-anchor="end" x="-15" y="-136">
4000
</text>
<text dominant-baseline="middle" font-size="12" text-anchor="end" x="-15" y="-204">
6000
</text>
<text dominant-baseline="middle" font-size="12" text-anchor="end" x="-15" y="-272">
8000
</text>
<text dominant-baseline="middle" font-size="12" text-anchor="end" x="-15" y="-340">
10000
</text>
</g>
<text font-size="12" text-anchor="middle" transform="rotate(-90 -60 -170)" x="-60" y="-182">
Execution-Time (microsecond)
</text>
</g>
</g>
</svg>